<mxfile host="app.diagrams.net" modified="2020-11-25T03:09:00.933Z" agent="5.0 (Windows NT 10.0; Win64; x64) AppleWebKit/537.36 (KHTML, like Gecko) Chrome/86.0.4240.198 Safari/537.36" etag="mIKQor_cGyMb6LwDO6u1" version="13.9.2" type="github">
  <diagram name="Page-1" id="e7e014a7-5840-1c2e-5031-d8a46d1fe8dd">
    <mxGraphModel dx="1221" dy="645" grid="1" gridSize="10" guides="1" tooltips="1" connect="1" arrows="1" fold="1" page="1" pageScale="1" pageWidth="1169" pageHeight="826" background="#ffffff" math="0" shadow="0">
      <root>
        <mxCell id="0" />
        <mxCell id="1" parent="0" />
        <mxCell id="2" value="Usuario" style="swimlane;whiteSpace=wrap" parent="1" vertex="1">
          <mxGeometry x="164.5" y="128" width="280" height="570" as="geometry" />
        </mxCell>
        <mxCell id="5" value="" style="ellipse;shape=startState;fillColor=#000000;strokeColor=#ff0000;" parent="2" vertex="1">
          <mxGeometry x="100" y="40" width="30" height="30" as="geometry" />
        </mxCell>
        <mxCell id="6" value="" style="edgeStyle=elbowEdgeStyle;elbow=horizontal;verticalAlign=bottom;endArrow=open;endSize=8;strokeColor=#FF0000;endFill=1;rounded=0" parent="2" source="5" target="7" edge="1">
          <mxGeometry x="100" y="40" as="geometry">
            <mxPoint x="115" y="110" as="targetPoint" />
          </mxGeometry>
        </mxCell>
        <mxCell id="7" value="Presionar boton&#xa;de registrar &#xa;paciente" style="" parent="2" vertex="1">
          <mxGeometry x="60" y="110" width="110" height="50" as="geometry" />
        </mxCell>
        <mxCell id="8" value="Ingresar datos del&#xa;paciente" style="" parent="2" vertex="1">
          <mxGeometry x="60" y="192" width="110" height="50" as="geometry" />
        </mxCell>
        <mxCell id="9" value="" style="endArrow=open;strokeColor=#FF0000;endFill=1;rounded=0" parent="2" source="7" target="8" edge="1">
          <mxGeometry relative="1" as="geometry" />
        </mxCell>
        <mxCell id="38" value="" style="ellipse;shape=endState;fillColor=#000000;strokeColor=#ff0000" parent="2" vertex="1">
          <mxGeometry x="100" y="482" width="30" height="30" as="geometry" />
        </mxCell>
        <mxCell id="R-0SH-J89ZEA3VoIQc6l-64" value="" style="endArrow=open;strokeColor=#FF0000;endFill=1;rounded=0;exitX=0;exitY=0.5;exitDx=0;exitDy=0;" edge="1" parent="2" source="R-0SH-J89ZEA3VoIQc6l-60">
          <mxGeometry relative="1" as="geometry">
            <mxPoint x="114.57999999999998" y="419.9999999999999" as="sourcePoint" />
            <mxPoint x="114.57999999999998" y="482" as="targetPoint" />
            <Array as="points">
              <mxPoint x="114.5" y="387" />
            </Array>
          </mxGeometry>
        </mxCell>
        <mxCell id="R-0SH-J89ZEA3VoIQc6l-65" value="Si" style="text;html=1;strokeColor=none;fillColor=none;align=center;verticalAlign=middle;whiteSpace=wrap;rounded=0;" vertex="1" parent="2">
          <mxGeometry x="120" y="392" width="40" height="20" as="geometry" />
        </mxCell>
        <mxCell id="R-0SH-J89ZEA3VoIQc6l-66" value="" style="endArrow=open;strokeColor=#FF0000;endFill=1;rounded=0;exitX=0.5;exitY=0;exitDx=0;exitDy=0;" edge="1" parent="2" source="R-0SH-J89ZEA3VoIQc6l-60">
          <mxGeometry relative="1" as="geometry">
            <mxPoint x="129.17000000000002" y="284.9999999999999" as="sourcePoint" />
            <mxPoint x="115.5" y="82" as="targetPoint" />
            <Array as="points">
              <mxPoint x="161.5" y="272" />
              <mxPoint x="35.5" y="272" />
              <mxPoint x="35.5" y="82" />
            </Array>
          </mxGeometry>
        </mxCell>
        <mxCell id="R-0SH-J89ZEA3VoIQc6l-67" value="No" style="text;html=1;strokeColor=none;fillColor=none;align=center;verticalAlign=middle;whiteSpace=wrap;rounded=0;" vertex="1" parent="2">
          <mxGeometry x="120" y="322" width="40" height="20" as="geometry" />
        </mxCell>
        <mxCell id="R-0SH-J89ZEA3VoIQc6l-72" value="" style="endArrow=open;strokeColor=#FF0000;endFill=1;rounded=0;exitX=0;exitY=0.5;exitDx=0;exitDy=0;" edge="1" parent="2" source="R-0SH-J89ZEA3VoIQc6l-70">
          <mxGeometry relative="1" as="geometry">
            <mxPoint x="170.00000000000006" y="442.39999999999986" as="sourcePoint" />
            <mxPoint x="115.5" y="442" as="targetPoint" />
            <Array as="points">
              <mxPoint x="255.5" y="527" />
              <mxPoint x="255.5" y="442" />
            </Array>
          </mxGeometry>
        </mxCell>
        <mxCell id="3" value="Sistema" style="swimlane;whiteSpace=wrap;startSize=23;" parent="1" vertex="1">
          <mxGeometry x="445" y="128" width="280" height="570" as="geometry" />
        </mxCell>
        <mxCell id="16" value="Validar la estructura&#xa;de  los datos" style="" parent="3" vertex="1">
          <mxGeometry x="85.5" y="192" width="110" height="50" as="geometry" />
        </mxCell>
        <mxCell id="R-0SH-J89ZEA3VoIQc6l-41" value="Verificar la no&#xa;existencia de los&#xa;datos" style="" vertex="1" parent="3">
          <mxGeometry x="85.5" y="282" width="110" height="50" as="geometry" />
        </mxCell>
        <mxCell id="R-0SH-J89ZEA3VoIQc6l-45" value="" style="endArrow=open;strokeColor=#FF0000;endFill=1;rounded=0;exitX=0.5;exitY=1;exitDx=0;exitDy=0;entryX=0.5;entryY=0;entryDx=0;entryDy=0;" edge="1" parent="3" source="16" target="R-0SH-J89ZEA3VoIQc6l-41">
          <mxGeometry relative="1" as="geometry">
            <mxPoint x="84.5" y="102" as="sourcePoint" />
            <mxPoint x="84.5" y="164" as="targetPoint" />
          </mxGeometry>
        </mxCell>
        <mxCell id="33" value="Indicar que el&#xa;paciente ya existe" style="" parent="3" vertex="1">
          <mxGeometry x="35" y="362" width="110" height="50" as="geometry" />
        </mxCell>
        <mxCell id="R-0SH-J89ZEA3VoIQc6l-49" value="" style="rhombus;whiteSpace=wrap;html=1;" vertex="1" parent="3">
          <mxGeometry x="215.5" y="378" width="18" height="18" as="geometry" />
        </mxCell>
        <mxCell id="R-0SH-J89ZEA3VoIQc6l-51" value="" style="endArrow=open;strokeColor=#FF0000;endFill=1;rounded=0;entryX=1;entryY=0.5;entryDx=0;entryDy=0;exitX=0;exitY=0.5;exitDx=0;exitDy=0;" edge="1" parent="3">
          <mxGeometry relative="1" as="geometry">
            <mxPoint x="215.5" y="387" as="sourcePoint" />
            <mxPoint x="145" y="387" as="targetPoint" />
          </mxGeometry>
        </mxCell>
        <mxCell id="R-0SH-J89ZEA3VoIQc6l-52" value="Si" style="text;html=1;strokeColor=none;fillColor=none;align=center;verticalAlign=middle;whiteSpace=wrap;rounded=0;" vertex="1" parent="3">
          <mxGeometry x="165" y="362" width="40" height="20" as="geometry" />
        </mxCell>
        <mxCell id="R-0SH-J89ZEA3VoIQc6l-53" value="Realizar peticion&#xa;de registro" style="" vertex="1" parent="3">
          <mxGeometry x="35" y="432" width="110" height="50" as="geometry" />
        </mxCell>
        <mxCell id="R-0SH-J89ZEA3VoIQc6l-55" value="" style="endArrow=open;strokeColor=#FF0000;endFill=1;rounded=0;entryX=1;entryY=0.5;entryDx=0;entryDy=0;exitX=0.492;exitY=1.071;exitDx=0;exitDy=0;exitPerimeter=0;" edge="1" parent="3" source="R-0SH-J89ZEA3VoIQc6l-49">
          <mxGeometry relative="1" as="geometry">
            <mxPoint x="224" y="402" as="sourcePoint" />
            <mxPoint x="145" y="442" as="targetPoint" />
            <Array as="points">
              <mxPoint x="224" y="442" />
            </Array>
          </mxGeometry>
        </mxCell>
        <mxCell id="R-0SH-J89ZEA3VoIQc6l-56" value="No" style="text;html=1;strokeColor=none;fillColor=none;align=center;verticalAlign=middle;whiteSpace=wrap;rounded=0;" vertex="1" parent="3">
          <mxGeometry x="165" y="422" width="40" height="20" as="geometry" />
        </mxCell>
        <mxCell id="R-0SH-J89ZEA3VoIQc6l-58" value="" style="endArrow=open;strokeColor=#FF0000;endFill=1;rounded=0;exitX=0.995;exitY=0.668;exitDx=0;exitDy=0;exitPerimeter=0;" edge="1" parent="3" source="R-0SH-J89ZEA3VoIQc6l-53">
          <mxGeometry relative="1" as="geometry">
            <mxPoint x="195.01999999999998" y="472" as="sourcePoint" />
            <mxPoint x="365" y="465" as="targetPoint" />
          </mxGeometry>
        </mxCell>
        <mxCell id="R-0SH-J89ZEA3VoIQc6l-70" value="Notificar resultado&#xa;de la operación" style="" vertex="1" parent="3">
          <mxGeometry x="35" y="502" width="110" height="50" as="geometry" />
        </mxCell>
        <mxCell id="4" value="Base de Datos" style="swimlane;whiteSpace=wrap" parent="1" vertex="1">
          <mxGeometry x="724.5" y="128" width="280" height="570" as="geometry" />
        </mxCell>
        <mxCell id="30" value="Devolver consulta&#xa;de los datos" style="" parent="4" vertex="1">
          <mxGeometry x="85" y="282" width="110" height="50" as="geometry" />
        </mxCell>
        <mxCell id="R-0SH-J89ZEA3VoIQc6l-48" value="¿Datos duplicados?" style="text;html=1;strokeColor=none;fillColor=none;align=center;verticalAlign=middle;whiteSpace=wrap;rounded=0;" vertex="1" parent="4">
          <mxGeometry x="-14.5" y="362" width="160" height="20" as="geometry" />
        </mxCell>
        <mxCell id="R-0SH-J89ZEA3VoIQc6l-57" value="Registrar paciente" style="" vertex="1" parent="4">
          <mxGeometry x="85" y="442" width="110" height="50" as="geometry" />
        </mxCell>
        <mxCell id="R-0SH-J89ZEA3VoIQc6l-44" value="" style="endArrow=open;strokeColor=#FF0000;endFill=1;rounded=0;entryX=1;entryY=0.5;entryDx=0;entryDy=0;" edge="1" parent="4" target="R-0SH-J89ZEA3VoIQc6l-70">
          <mxGeometry relative="1" as="geometry">
            <mxPoint x="139.58000000000004" y="492" as="sourcePoint" />
            <mxPoint x="139.58000000000004" y="554" as="targetPoint" />
            <Array as="points">
              <mxPoint x="139.5" y="527" />
            </Array>
          </mxGeometry>
        </mxCell>
        <mxCell id="R-0SH-J89ZEA3VoIQc6l-43" value="" style="endArrow=open;strokeColor=#FF0000;endFill=1;rounded=0;exitX=1;exitY=0.5;exitDx=0;exitDy=0;entryX=0;entryY=0.5;entryDx=0;entryDy=0;" edge="1" parent="1" source="8" target="16">
          <mxGeometry relative="1" as="geometry">
            <mxPoint x="289.5" y="298" as="sourcePoint" />
            <mxPoint x="289.5" y="360" as="targetPoint" />
          </mxGeometry>
        </mxCell>
        <mxCell id="R-0SH-J89ZEA3VoIQc6l-46" value="" style="endArrow=open;strokeColor=#FF0000;endFill=1;rounded=0;exitX=1;exitY=0.5;exitDx=0;exitDy=0;entryX=0;entryY=0.5;entryDx=0;entryDy=0;" edge="1" parent="1" source="R-0SH-J89ZEA3VoIQc6l-41" target="30">
          <mxGeometry relative="1" as="geometry">
            <mxPoint x="529" y="260" as="sourcePoint" />
            <mxPoint x="670" y="310" as="targetPoint" />
          </mxGeometry>
        </mxCell>
        <mxCell id="R-0SH-J89ZEA3VoIQc6l-47" value="" style="endArrow=open;strokeColor=#FF0000;endFill=1;rounded=0;entryX=1.209;entryY=0.496;entryDx=0;entryDy=0;entryPerimeter=0;exitX=0.5;exitY=1;exitDx=0;exitDy=0;" edge="1" parent="1" source="30" target="R-0SH-J89ZEA3VoIQc6l-49">
          <mxGeometry relative="1" as="geometry">
            <mxPoint x="870" y="510" as="sourcePoint" />
            <mxPoint x="700" y="520" as="targetPoint" />
            <Array as="points">
              <mxPoint x="866" y="515" />
            </Array>
          </mxGeometry>
        </mxCell>
        <mxCell id="R-0SH-J89ZEA3VoIQc6l-59" value="" style="endArrow=open;strokeColor=#FF0000;endFill=1;rounded=0;exitX=0;exitY=0.5;exitDx=0;exitDy=0;entryX=1;entryY=0.5;entryDx=0;entryDy=0;" edge="1" parent="1" source="R-0SH-J89ZEA3VoIQc6l-60">
          <mxGeometry relative="1" as="geometry">
            <mxPoint x="380" y="500" as="sourcePoint" />
            <mxPoint x="334.5" y="515" as="targetPoint" />
          </mxGeometry>
        </mxCell>
        <mxCell id="R-0SH-J89ZEA3VoIQc6l-60" value="" style="rhombus;whiteSpace=wrap;html=1;" vertex="1" parent="1">
          <mxGeometry x="316.5" y="506" width="18" height="18" as="geometry" />
        </mxCell>
        <mxCell id="R-0SH-J89ZEA3VoIQc6l-61" value="" style="endArrow=open;strokeColor=#FF0000;endFill=1;rounded=0;exitX=0;exitY=0.5;exitDx=0;exitDy=0;entryX=1;entryY=0.5;entryDx=0;entryDy=0;" edge="1" parent="1" source="33" target="R-0SH-J89ZEA3VoIQc6l-60">
          <mxGeometry relative="1" as="geometry">
            <mxPoint x="480" y="515" as="sourcePoint" />
            <mxPoint x="334.5" y="515" as="targetPoint" />
          </mxGeometry>
        </mxCell>
        <mxCell id="R-0SH-J89ZEA3VoIQc6l-62" value="¿Abortar operación?" style="text;html=1;strokeColor=none;fillColor=none;align=center;verticalAlign=middle;whiteSpace=wrap;rounded=0;" vertex="1" parent="1">
          <mxGeometry x="334.5" y="486" width="150" height="20" as="geometry" />
        </mxCell>
      </root>
    </mxGraphModel>
  </diagram>
</mxfile>
